<svg width="595" height="595" viewBox="0 0 595 595" fill="none" xmlns="http://www.w3.org/2000/svg">
<g clip-path="url(#clip0_0_1)">
<path d="M552.19 294.72H531.75C529.11 294.72 526.97 296.86 526.97 299.5C526.97 302.14 529.11 304.28 531.75 304.28H552.19C554.83 304.28 556.97 302.14 556.97 299.5C556.97 296.86 554.83 294.72 552.19 294.72Z" fill="white"/>
<path fill-rule="evenodd" clip-rule="evenodd" d="M535.58 193.1L508.13 208.22C506.3 209.22 505.42 212.04 506.18 214.47C506.94 216.9 509.05 218.06 510.88 217.06L538.33 201.94C540.16 200.94 541.04 198.12 540.28 195.69C539.52 193.26 537.41 192.1 535.58 193.1Z" fill="white"/>
<path d="M480.228 107.727L452.326 135.658C450.46 137.526 450.462 140.552 452.33 142.418C454.197 144.284 457.224 144.282 459.09 142.415L486.991 114.483C488.857 112.616 488.856 109.589 486.988 107.724C485.12 105.858 482.094 105.859 480.228 107.727Z" fill="white"/>
<path d="M103.406 114.906L131.371 142.773C133.241 144.637 136.267 144.631 138.131 142.762C139.994 140.892 139.989 137.865 138.119 136.002L110.154 108.134C108.284 106.27 105.257 106.276 103.394 108.146C101.531 110.016 101.536 113.042 103.406 114.906Z" fill="white"/>
<path fill-rule="evenodd" clip-rule="evenodd" d="M52.36 202.51L79.86 217.51C81.69 218.51 83.86 217.34 84.56 214.91C85.32 212.48 84.44 209.67 82.56 208.67L55.07 193.67C53.23 192.67 51.07 193.83 50.36 196.27C49.65 198.7 50.53 201.51 52.36 202.51Z" fill="white"/>
<path fill-rule="evenodd" clip-rule="evenodd" d="M37.45 304.89L60.28 304.8C62.28 304.8 63.86 302.64 63.86 300.01C63.86 297.38 62.23 295.23 60.26 295.24L37.43 295.33C35.43 295.33 33.85 297.49 33.86 300.12C33.86 302.75 35.48 304.9 37.45 304.89Z" fill="white"/>
<path fill-rule="evenodd" clip-rule="evenodd" d="M55.48 406.45L82.92 391.25C84.75 390.25 85.62 387.43 84.86 385C84.09 382.57 81.97 381.41 80.14 382.43L52.7 397.63C50.87 398.63 50 401.45 50.76 403.88C51.53 406.31 53.65 407.47 55.48 406.45Z" fill="white"/>
<path d="M111.063 491.669L138.902 463.675C140.763 461.803 140.755 458.776 138.883 456.915C137.011 455.054 133.984 455.062 132.123 456.934L104.284 484.928C102.423 486.8 102.431 489.827 104.303 491.688C106.175 493.55 109.202 493.541 111.063 491.669Z" fill="white"/>
<path d="M487.824 483.643L459.795 455.838C457.921 453.979 454.895 453.991 453.036 455.866C451.176 457.74 451.189 460.766 453.063 462.625L481.091 490.43C482.965 492.289 485.992 492.277 487.851 490.403C489.71 488.528 489.698 485.502 487.824 483.643Z" fill="white"/>
<path fill-rule="evenodd" clip-rule="evenodd" d="M538.67 395.92L511.17 381C509.33 380 507.22 381.18 506.47 383.61C505.72 386.05 506.61 388.85 508.47 389.85L535.97 404.8C537.81 405.8 539.92 404.62 540.67 402.18C541.39 399.72 540.5 396.91 538.67 395.92Z" fill="white"/>
<path d="M296.48 567.6C287.84 567.6 281.227 565.147 276.64 560.24C272.053 555.333 269.76 548.4 269.76 539.44V481.52C269.76 462.107 278.72 452.4 296.64 452.4C305.173 452.4 311.68 454.853 316.16 459.76C320.64 464.56 322.88 471.493 322.88 480.56V482.64H306.24V479.44C306.24 472.08 303.2 468.4 297.12 468.4C293.813 468.4 291.36 469.413 289.76 471.44C288.16 473.467 287.36 477.04 287.36 482.16V503.6H287.68C290.773 497.093 296.107 493.84 303.68 493.84C310.08 493.84 314.933 496.027 318.24 500.4C321.547 504.773 323.2 511.12 323.2 519.44V539.44C323.2 548.4 320.907 555.333 316.32 560.24C311.733 565.147 305.12 567.6 296.48 567.6ZM296.48 551.6C302.56 551.6 305.6 547.973 305.6 540.72V520.88C305.6 513.52 302.56 509.84 296.48 509.84C290.4 509.84 287.36 513.52 287.36 520.88V540.72C287.36 547.973 290.4 551.6 296.48 551.6Z" fill="#ADFF00"/>
<path d="M263.2 72.56H244.8V60.08C249.813 60.08 253.813 59.6533 256.8 58.8C259.893 57.9467 262.347 56.56 264.16 54.64C265.973 52.6133 267.573 49.7333 268.96 46H280.8V158H263.2V72.56ZM302.303 145.84C302.303 137.84 303.583 131.013 306.143 125.36C308.703 119.6 313.289 113.253 319.903 106.32C326.409 99.3867 330.889 93.4667 333.343 88.56C335.903 83.6533 337.182 78.5333 337.182 73.2C337.182 68.4 336.383 65.0933 334.783 63.28C333.289 61.36 331.049 60.4 328.063 60.4C321.983 60.4 318.943 64.08 318.943 71.44V83.44H302.303V72.56C302.303 63.4933 304.543 56.56 309.023 51.76C313.503 46.8533 320.009 44.4 328.543 44.4C337.076 44.4 343.583 46.8533 348.063 51.76C352.543 56.56 354.783 63.4933 354.783 72.56C354.783 79.3867 353.129 86.0533 349.823 92.56C346.623 99.0667 341.023 106.533 333.023 114.96C327.796 120.507 324.276 125.04 322.463 128.56C320.649 131.973 319.743 135.653 319.743 139.6V142H353.183V158H302.303V145.84Z" fill="#ADFF00"/>
</g>
<defs>
<clipPath id="clip0_0_1">
<rect width="594.94" height="594.94" fill="white"/>
</clipPath>
</defs>
</svg>
